<?xml version="1.0" standalone="no"?>
<!DOCTYPE svg PUBLIC "-//W3C//DTD SVG 20010904//EN"
 "http://www.w3.org/TR/2001/REC-SVG-20010904/DTD/svg10.dtd">
<svg version="1.0" xmlns="http://www.w3.org/2000/svg"
 width="400.000000pt" height="400.000000pt" viewBox="0 0 400.000000 400.000000"
 preserveAspectRatio="xMidYMid meet">
<metadata>
Created by potrace 1.11, written by Peter Selinger 2001-2013
</metadata>
<g transform="translate(0.000000,400.000000) scale(0.100000,-0.100000)"
fill="#000000" stroke="none">
<path d="M0 2000 l0 -2000 2000 0 2000 0 0 2000 0 2000 -2000 0 -2000 0 0
-2000z m1100 160 l0 -50 -50 0 -50 0 0 -175 0 -175 -65 0 -65 0 0 175 0 175
-50 0 c-53 0 -52 -2 -52 65 0 14 0 27 1 30 1 3 75 5 166 5 l165 0 0 -50z m192
-42 l3 -92 63 92 63 92 65 0 c49 0 63 -3 58 -12 -4 -7 -36 -54 -70 -103 l-63
-91 38 -64 c20 -36 51 -91 69 -122 l32 -58 -70 0 -70 0 -40 81 c-30 59 -45 79
-58 77 -14 -3 -18 -17 -20 -81 l-3 -77 -59 0 -60 0 0 225 0 225 60 0 59 0 3
-92z m565 67 c45 -26 66 -76 61 -137 -9 -84 -69 -138 -155 -138 l-43 0 0 -75
0 -75 -60 0 -60 0 0 226 0 226 113 -4 c88 -3 119 -7 144 -23z m253 -60 l0 -85
70 0 70 0 0 85 0 85 60 0 60 0 0 -225 0 -225 -60 0 -60 0 0 90 0 90 -70 0 -70
0 0 -90 0 -90 -60 0 -60 0 0 225 0 225 60 0 60 0 0 -85z m621 59 c76 -44 88
-131 27 -199 l-31 -36 45 -67 c24 -37 53 -79 62 -94 l18 -28 -70 0 -70 0 -44
77 c-24 43 -51 79 -61 81 -15 3 -17 -6 -17 -77 l0 -81 -60 0 -60 0 0 226 0
227 113 -5 c90 -3 121 -8 148 -24z m464 12 l34 -15 -17 -46 c-14 -39 -20 -45
-37 -39 -11 4 -44 8 -74 8 -48 1 -56 -2 -75 -27 -32 -43 -30 -155 2 -190 35
-37 74 -40 160 -13 21 7 22 5 22 -44 0 -46 -3 -52 -27 -62 -42 -17 -162 -14
-198 5 -73 38 -109 108 -108 212 1 97 47 179 118 211 40 18 157 18 200 0z"/>
<path d="M1720 2060 c0 -46 2 -50 23 -50 27 0 57 28 57 53 0 23 -28 47 -56 47
-22 0 -24 -4 -24 -50z"/>
<path d="M2590 2066 c0 -52 6 -58 46 -47 24 6 30 13 32 41 4 37 -9 50 -50 50
-26 0 -28 -3 -28 -44z"/>
</g>
</svg>
